<svg width="800" height="781" viewBox="0 0 800 781" fill="none" xmlns="http://www.w3.org/2000/svg">
<path fill-rule="evenodd" clip-rule="evenodd" d="M398.5 0C494.472 0 580.565 32.5507 649 87C658.918 94.8911 668.886 103.72 678 112.5C681.552 115.922 684.55 118.968 688 122.5C726.667 162.091 755.296 209.098 775 262.5C785.186 290.104 792.87 319.231 796.565 350C798.149 363.195 800 390.192 800 404C800 424.265 798.5 436.895 796 456.5C792.972 480.249 787.451 502.282 780.5 523.5C774.297 542.435 767.046 560.721 758 579C737.241 620.944 710.082 656.14 679 686.5C649.897 714.926 617.541 739.212 578.5 758C571.148 761.538 561.081 766.367 551 770.5C543.715 773.486 538.781 775.336 532.5 777.5C530.694 778.122 526.614 779.448 525 780C504.72 784.04 499.201 771.233 499.201 760.312C499.201 746.792 499.68 702.634 499.68 647.754C499.68 609.514 486.881 584.556 472.521 571.836C561.601 561.676 655.2 526.993 655.2 369.473C655.2 324.673 639.68 288.115 614 259.395C618.16 249.035 631.88 207.32 610.08 150.84C610.08 150.84 576.56 139.851 500.2 192.891C468.24 183.811 434 179.242 400 179.082C366 179.242 331.801 183.811 299.881 192.891C223.441 139.851 189.841 150.84 189.841 150.84C168.121 207.32 181.841 249.035 185.961 259.395C160.401 288.115 144.761 324.673 144.761 369.473C144.761 526.593 238.161 561.808 327.001 572.168C315.561 582.408 305.2 600.472 301.6 626.992C278.8 637.472 220.88 655.61 185.2 592.93C185.2 592.93 164.04 553.525 123.88 550.645C123.88 550.645 84.8804 550.126 121.16 575.566C121.16 575.566 147.36 588.166 165.56 635.566C165.56 635.566 189.041 708.765 300.321 683.965C300.521 718.245 301 750.502 301 760.262C301 771.102 293.821 783.273 273.5 779.5C271.434 778.796 269.554 778.236 267.5 777.5C183.665 747.459 113.273 694.362 65.5002 619.5C59.9742 610.841 54.5943 602.32 49.5002 593C26.9301 551.708 10.806 504.053 4 456.5C0.917463 434.962 0 413.316 0 391C0 367.253 3.36785 344.43 7.50023 322.5C11.2489 302.607 15.9288 285.948 22.5002 267.5C41.1256 215.214 69.8942 166.836 107 127.5C180.033 50.0779 281.319 0 398.5 0Z"/>
</svg>
