<svg width="800" height="800" viewBox="0 0 800 800" fill="none" xmlns="http://www.w3.org/2000/svg">
<path fill-rule="evenodd" clip-rule="evenodd" d="M742.857 0H56.9643C25.5357 0 0 25.8929 0 57.6787V742.32C0 774.107 25.5357 800 56.9643 800H742.857C774.287 800 800 774.107 800 742.32V57.6787C800 25.8929 774.287 0 742.857 0ZM241.786 685.713H123.214V303.929H241.964V685.713H241.786ZM182.5 251.786C144.464 251.786 113.75 220.893 113.75 183.036C113.75 145.179 144.464 114.286 182.5 114.286C220.357 114.286 251.25 145.179 251.25 183.036C251.25 221.071 220.536 251.786 182.5 251.786ZM686.25 685.713H567.68V500C567.68 455.713 566.787 398.75 506.07 398.75C444.287 398.75 434.82 446.963 434.82 496.787V685.713H316.25V303.929H430V356.07H431.607C447.5 326.071 486.25 294.464 543.93 294.464C663.93 294.464 686.25 373.57 686.25 476.43V685.713Z"/>
</svg>
