<svg width="97" height="94" viewBox="0 0 97 94" fill="none" xmlns="http://www.w3.org/2000/svg">
<path fill-rule="evenodd" clip-rule="evenodd" d="M48.854 0C41.7654 0 35.2544 1.54339 29.5 4C24.6646 6.06427 20.3953 8.67815 16.4528 12.5C14.6654 14.2326 12.5674 16.0667 11 18C7.59039 22.2054 4.81136 27.88 3 33C1.33625 37.7028 0.5 41.7812 0.5 47.217C0.5 57.7517 3.66367 67.5032 9.13112 75.5C14.9549 84.018 22.9877 90.1401 33 93.502C35.427 93.992 36.721 92.848 36.721 91.545C36.721 90.404 36.641 86.493 36.641 82.418C23.051 85.352 20.221 76.551 20.221 76.551C18.037 70.847 14.801 69.381 14.801 69.381C10.353 66.366 15.125 66.366 15.125 66.366C20.059 66.692 22.648 71.418 22.648 71.418C27.015 78.914 34.052 76.796 36.883 75.492C37.287 72.314 38.582 70.114 39.957 68.892C29.118 67.751 17.714 63.514 17.714 44.609C17.714 39.231 19.654 34.831 22.728 31.409C22.243 30.187 20.544 25.134 23.214 18.371C23.214 18.371 27.339 17.067 36.64 23.423C40.6221 22.3457 44.7288 21.7976 48.854 21.793C52.979 21.793 57.184 22.364 61.067 23.423C70.369 17.067 74.494 18.371 74.494 18.371C77.164 25.134 75.464 30.187 74.979 31.409C78.134 34.831 79.994 39.231 79.994 44.609C79.994 63.514 68.59 67.669 57.67 68.892C59.45 70.44 60.986 73.373 60.986 78.018C60.986 84.618 60.906 89.915 60.906 91.544C60.906 92.848 61.796 93.991 64.222 93.502C74.3981 90.0841 82.2013 84.0185 88 75.5C92.5328 68.8412 96 59.5 96.5 52C96.6379 50.7825 96.7 49.1098 96.7 48C96.7 47 96.6625 44.5826 96.5 43C95.5261 33.5162 91.9044 25.0941 86.2596 18C84.7065 16.048 82.758 14.2103 81 12.5C77 9 73.4965 6.54348 69 4.5C63.1175 1.82664 56.2254 0 48.854 0Z"/>
</svg>
