<?xml version="1.0" standalone="no"?>
<!DOCTYPE svg PUBLIC "-//W3C//DTD SVG 20010904//EN"
 "http://www.w3.org/TR/2001/REC-SVG-20010904/DTD/svg10.dtd">
<svg version="1.0" xmlns="http://www.w3.org/2000/svg"
 width="475.000000pt" height="450.000000pt" viewBox="0 0 475.000000 450.000000"
 preserveAspectRatio="xMidYMid meet">

<g transform="translate(0.000000,450.000000) scale(0.100000,-0.100000)"
fill="#000000" stroke="none">
<path d="M1494 3849 c-3 -6 -2 -14 4 -18 6 -3 380 -199 831 -436 451 -236 819
-430 818 -432 -2 -1 -358 162 -791 363 -551 255 -792 362 -799 355 -8 -8 -8
-14 -1 -21 6 -6 541 -256 1190 -556 648 -300 1278 -597 1398 -660 200 -105
246 -122 246 -95 0 9 -2861 1511 -2879 1511 -5 0 -13 -5 -17 -11z"/>
<path d="M1537 2866 c-3 -8 -3 -17 1 -20 4 -2 121 -28 260 -57 l254 -53 -52
-15 c-61 -17 -113 -65 -131 -120 -20 -64 -35 -79 -99 -97 -75 -21 -100 -49
-130 -145 -19 -63 -30 -81 -95 -149 -82 -87 -101 -128 -85 -195 15 -64 12 -92
-20 -172 -36 -90 -37 -110 -6 -234 67 -268 297 -565 602 -776 141 -97 126 -66
154 -325 13 -126 26 -232 30 -237 9 -15 285 -33 395 -26 313 20 703 115 732
178 7 15 6 45 -3 96 -6 41 -27 211 -46 378 -18 167 -36 303 -39 303 -4 0 -12
-13 -19 -30 -14 -35 -35 -54 -49 -46 -15 10 38 106 55 99 38 -14 0 549 -57
847 -20 105 -61 277 -80 336 l-9 31 -116 13 c-64 7 -129 21 -144 29 -79 45
-232 142 -215 137 11 -3 290 -62 620 -130 330 -69 610 -128 623 -131 17 -4 22
-1 22 14 0 15 -11 22 -47 29 -27 6 -545 115 -1153 242 -608 127 -1115 234
-1126 236 -14 4 -23 0 -27 -10z m728 -377 c192 -40 345 -111 487 -225 43 -36
83 -62 89 -59 19 12 41 70 41 106 0 20 -8 53 -16 74 -20 46 -20 65 -2 65 20 0
51 -88 51 -146 0 -40 -6 -60 -28 -92 l-29 -40 41 -52 c52 -66 68 -119 52 -180
-15 -55 -52 -96 -109 -122 -42 -19 -43 -20 -26 -39 28 -31 30 -110 5 -156 -49
-85 -124 -104 -217 -54 -32 17 -59 30 -60 28 -2 -2 2 -19 8 -39 9 -30 8 -42
-8 -74 -29 -57 -77 -77 -183 -77 -142 1 -274 47 -424 147 -37 25 -72 46 -77
46 -6 0 -31 -15 -57 -34 -77 -54 -130 -78 -136 -61 -4 9 12 24 46 43 29 16 73
46 99 65 l48 36 72 -52 c150 -107 305 -161 444 -155 107 4 138 24 141 89 1 36
0 39 -5 14 -9 -40 -25 -38 -33 3 -4 19 -19 46 -34 62 -17 17 -23 30 -16 34 22
14 9 28 -87 91 -190 124 -454 245 -537 245 -24 0 -79 -11 -122 -25 -42 -13
-79 -22 -81 -20 -26 25 110 76 203 76 106 0 357 -119 635 -301 233 -152 241
-155 301 -125 59 31 85 106 55 163 -28 54 -285 286 -438 395 -109 78 -122 81
-383 84 -181 1 -230 5 -230 15 0 19 223 31 370 18 100 -8 129 -14 180 -39 69
-34 221 -153 377 -295 117 -106 117 -106 186 -64 62 38 80 123 43 196 -26 51
-175 192 -262 248 -95 62 -204 108 -325 138 -98 25 -287 56 -338 56 -23 0 -35
18 -21 32 7 7 197 -19 310 -43z m525 -15 c64 -58 77 -137 29 -185 -17 -17 -23
-19 -30 -8 -5 8 -2 20 9 32 28 31 21 82 -18 122 -19 19 -38 35 -42 35 -5 0
-21 -20 -36 -45 -36 -59 -71 -61 -41 -2 14 27 70 87 81 87 4 0 26 -16 48 -36z
m34 -349 c27 -21 8 -42 -23 -25 -18 9 -25 6 -52 -22 -58 -63 -64 -75 -45 -103
34 -52 115 -82 144 -53 9 9 15 9 25 -1 21 -22 -20 -43 -74 -38 -54 4 -102 35
-125 79 -21 41 -13 66 42 127 48 54 74 62 108 36z m74 -126 c4 -41 2 -51 -9
-47 -8 3 -17 21 -20 41 -3 21 -9 40 -12 44 -4 3 -2 12 5 20 17 21 30 1 36 -58z
m-162 -192 c37 -33 23 -54 -16 -25 -37 27 -65 17 -106 -37 -33 -43 -28 -58 32
-93 27 -15 49 -21 71 -18 35 5 55 -11 32 -25 -54 -34 -189 34 -189 96 0 17 16
43 46 75 54 58 86 64 130 27z m-371 -177 c3 -5 -1 -23 -10 -39 -33 -64 -11
-95 66 -94 35 0 49 -3 49 -13 0 -31 -90 -30 -137 1 -28 19 -31 70 -7 121 17
35 28 42 39 24z m-566 -142 c-5 -18 -23 -46 -39 -63 -25 -25 -32 -27 -40 -15
-6 10 -1 21 16 39 13 13 27 35 30 48 4 13 14 23 24 23 16 0 17 -4 9 -32z m981
-155 c119 -60 262 -218 285 -315 13 -53 -19 -30 -54 38 -63 122 -199 242 -316
280 -57 19 -70 28 -61 42 9 15 56 0 146 -45z m-492 -625 c51 -11 75 -38 31
-38 -28 0 -112 21 -123 30 -13 13 4 32 23 25 9 -4 40 -11 69 -17z m637 -39 c0
-21 -132 -48 -267 -56 l-118 -6 0 23 c0 21 3 22 39 16 48 -7 207 8 276 28 58
15 70 15 70 -5z"/>
</g>
</svg>
