<svg width="800" height="781" viewBox="0 0 800 781" fill="none" xmlns="http://www.w3.org/2000/svg">
<path fill-rule="evenodd" clip-rule="evenodd" d="M400 0C530.471 0 641.485 59.3425 714.5 153C765.118 217.928 800 298.34 800 391.072C800 446.364 790.942 499.74 772 548C755.688 589.558 731.741 627.193 703.5 660.5C657.096 715.227 594.103 756.559 525.5 780C505.22 784.04 499.2 771.383 499.2 760.464C499.2 746.946 499.68 702.792 499.68 647.918C499.68 609.683 486.88 584.727 472.52 572.009C561.6 561.85 655.2 527.17 655.2 369.668C655.2 324.873 639.68 288.319 614 259.602C618.16 249.243 631.88 207.533 610.08 151.059C610.08 151.059 576.56 140.071 500.2 193.105C468.24 184.026 434 179.458 400 179.298C366 179.458 331.8 184.026 299.88 193.105C223.44 140.071 189.84 151.059 189.84 151.059C168.12 207.533 181.84 249.243 185.96 259.602C160.4 288.319 144.76 324.873 144.76 369.668C144.76 526.77 238.16 561.982 327 572.341C315.56 582.58 305.2 600.642 301.6 627.159C278.8 637.638 220.88 655.773 185.2 593.1C185.2 593.1 164.04 553.699 123.88 550.82C123.88 550.82 84.88 550.302 121.16 575.739C121.16 575.739 147.36 588.337 165.56 635.732C165.56 635.732 189.04 708.922 300.32 684.125C300.52 718.401 300.88 750.706 300.88 760.464C300.88 771.303 294.94 784.222 274.5 780C205.816 756.584 143.954 716.27 97.5 661.5C69.8743 628.929 45.9521 591.715 29.5 551C9.59021 501.728 0 447.411 0 391.072C0 296.156 36.6964 213.113 89.5 147.5C162.7 56.5424 271.683 0 400 0Z" fill="#24292F"/>
</svg>
